<?xml version="1.0" encoding="UTF-8" standalone="no"?>
<!-- Created with Inkscape (http://www.inkscape.org/) -->

<svg
   width="200pt"
   height="130pt"
   viewBox="0 0 70.555554 45.861111"
   version="1.1"
   id="svg1"
   xml:space="preserve"
   inkscape:version="1.4 (e7c3feb100, 2024-10-09)"
   sodipodi:docname="tent.svg"
   inkscape:export-filename="tent.pdf"
   inkscape:export-xdpi="96"
   inkscape:export-ydpi="96"
   xmlns:inkscape="http://www.inkscape.org/namespaces/inkscape"
   xmlns:sodipodi="http://sodipodi.sourceforge.net/DTD/sodipodi-0.dtd"
   xmlns="http://www.w3.org/2000/svg"
   xmlns:svg="http://www.w3.org/2000/svg"><sodipodi:namedview
     id="namedview1"
     pagecolor="#ffffff"
     bordercolor="#000000"
     borderopacity="0.25"
     inkscape:showpageshadow="2"
     inkscape:pageopacity="0.0"
     inkscape:pagecheckerboard="0"
     inkscape:deskcolor="#d1d1d1"
     inkscape:document-units="mm"
     showgrid="true"
     inkscape:lockguides="false"
     inkscape:zoom="4.0315403"
     inkscape:cx="128.23883"
     inkscape:cy="81.606526"
     inkscape:window-width="1920"
     inkscape:window-height="1011"
     inkscape:window-x="0"
     inkscape:window-y="0"
     inkscape:window-maximized="1"
     inkscape:current-layer="layer3"><inkscape:grid
       type="modular"
       id="grid1"
       units="mm"
       originx="0"
       originy="0"
       spacingx="40.000001"
       spacingy="40.000001"
       empcolor="#0047cb"
       empopacity="0.30196078"
       color="#0099e5"
       opacity="0.14901961"
       empspacing="0"
       marginx="0"
       marginy="0"
       gapx="10"
       gapy="10"
       enabled="false"
       visible="true" /><inkscape:grid
       id="grid2"
       units="mm"
       originx="0"
       originy="0"
       spacingx="0.26458334"
       spacingy="0.26458334"
       empcolor="#0099e5"
       empopacity="0.30196078"
       color="#0099e5"
       opacity="0.14901961"
       empspacing="5"
       enabled="true"
       visible="true" /><inkscape:grid
       type="modular"
       id="grid3"
       units="mm"
       originx="0"
       originy="0"
       spacingx="40.000001"
       spacingy="40.000001"
       empcolor="#0047cb"
       empopacity="0.30196078"
       color="#0099e5"
       opacity="0.14901961"
       empspacing="0"
       marginx="0"
       marginy="0"
       gapx="10"
       gapy="10"
       enabled="false"
       visible="true" /><inkscape:grid
       type="modular"
       id="grid4"
       units="mm"
       originx="0"
       originy="0"
       spacingx="40.000001"
       spacingy="40.000001"
       empcolor="#0047cb"
       empopacity="0.30196078"
       color="#0099e5"
       opacity="0.14901961"
       empspacing="0"
       marginx="0"
       marginy="0"
       gapx="10"
       gapy="10"
       enabled="false"
       visible="true" /><inkscape:grid
       type="modular"
       id="grid5"
       units="mm"
       originx="0"
       originy="0"
       spacingx="40.000001"
       spacingy="40.000001"
       empcolor="#0047cb"
       empopacity="0.30196078"
       color="#0099e5"
       opacity="0.14901961"
       empspacing="0"
       marginx="0"
       marginy="0"
       gapx="10"
       gapy="10"
       enabled="false"
       visible="true" /><inkscape:grid
       type="modular"
       id="grid6"
       units="mm"
       originx="0"
       originy="0"
       spacingx="40.000001"
       spacingy="40.000001"
       empcolor="#0047cb"
       empopacity="0.30196078"
       color="#0099e5"
       opacity="0.14901961"
       empspacing="0"
       marginx="0"
       marginy="0"
       gapx="10"
       gapy="10"
       enabled="false"
       visible="true" /></sodipodi:namedview><defs
     id="defs1"><linearGradient
       id="swatch31"
       inkscape:swatch="solid"><stop
         style="stop-color:#000000;stop-opacity:1;"
         offset="0"
         id="stop31" /></linearGradient></defs><g
     inkscape:groupmode="layer"
     id="layer2"
     inkscape:label="Layer 2"
     style="display:inline"><path
       style="display:none;fill:#000000;stroke-width:0.550539"
       d="m 18.343179,41.918821 c 0,-0.115631 0.05221,-0.242609 0.116015,-0.282172 0.186044,-0.115355 0.51266,0.152239 0.40303,0.330199 -0.144293,0.234229 -0.519045,0.199553 -0.519045,-0.04803 z m 39.563846,0.07213 c -0.164748,-0.104567 -0.123726,-0.155505 0.188557,-0.234137 0.435769,-0.109727 0.614062,-0.02653 0.464261,0.216639 -0.116817,0.189628 -0.370891,0.196438 -0.652818,0.0175 z M 19.479331,41.883494 c 0.104981,-0.04215 0.230412,-0.03696 0.278736,0.01152 0.04832,0.04848 -0.03757,0.08296 -0.190873,0.07663 -0.169415,-0.007 -0.203875,-0.04157 -0.08786,-0.08815 z m 1.890557,0 c 0.10498,-0.04215 0.230411,-0.03696 0.278736,0.01152 0.04832,0.04848 -0.03757,0.08296 -0.190874,0.07663 -0.169414,-0.007 -0.203875,-0.04157 -0.08786,-0.08815 z m 0.872564,0 c 0.104981,-0.04215 0.230412,-0.03696 0.278736,0.01152 0.04832,0.04848 -0.03757,0.08296 -0.190874,0.07663 -0.169414,-0.007 -0.203874,-0.04157 -0.08786,-0.08815 z m 1.890557,0 c 0.10498,-0.04215 0.230412,-0.03696 0.278736,0.01152 0.04833,0.04848 -0.03757,0.08296 -0.190874,0.07663 -0.169414,-0.007 -0.203874,-0.04157 -0.08786,-0.08815 z m 0.872565,0 c 0.10498,-0.04215 0.230411,-0.03696 0.278735,0.01152 0.04833,0.04848 -0.03757,0.08296 -0.190873,0.07663 -0.169415,-0.007 -0.203875,-0.04157 -0.08786,-0.08815 z m 0.872564,0 c 0.104981,-0.04215 0.230412,-0.03696 0.278736,0.01152 0.04833,0.04848 -0.03757,0.08296 -0.190873,0.07663 -0.169415,-0.007 -0.203875,-0.04157 -0.08786,-0.08815 z m 1.890557,0 c 0.104981,-0.04215 0.230412,-0.03696 0.278736,0.01152 0.04833,0.04848 -0.03757,0.08296 -0.190874,0.07663 -0.169415,-0.007 -0.203874,-0.04157 -0.08786,-0.08815 z m 0.872564,0 c 0.104981,-0.04215 0.230412,-0.03696 0.278736,0.01152 0.04833,0.04848 -0.03757,0.08296 -0.190873,0.07663 -0.169415,-0.007 -0.203875,-0.04157 -0.08786,-0.08815 z m 0.872565,0 c 0.10498,-0.04215 0.230412,-0.03696 0.278736,0.01152 0.04832,0.04848 -0.03757,0.08296 -0.190873,0.07663 -0.169415,-0.007 -0.203875,-0.04157 -0.08786,-0.08815 z m 1.990538,-0.0073 c 0.267025,-0.06287 3.272117,-1.91024 3.272117,-2.011522 0,-0.02435 -0.590103,-0.289662 -1.311339,-0.589581 -0.721237,-0.299919 -1.287116,-0.569609 -1.257509,-0.599312 0.02961,-0.0297 0.620885,0.184139 1.313952,0.475204 0.967805,0.406447 1.306178,0.490862 1.458667,0.363897 0.151783,-0.126378 0.218595,-0.112893 0.283677,0.05726 0.07523,0.196687 1.320399,0.222574 10.7059,0.222574 h 10.620766 l 0.02179,-0.620074 c 0.01734,-0.493291 0.03449,-0.53058 0.0839,-0.182374 0.03416,0.240734 0.122521,0.500071 0.196352,0.576303 0.07383,0.07623 0.134237,0.259094 0.134237,0.406357 0,0.221161 -0.04984,0.240993 -0.286424,0.113966 -0.195249,-0.104834 -3.701886,-0.141299 -11.016128,-0.114558 l -10.729704,0.03923 -1.35703,0.859453 c -0.839515,0.531693 -1.291484,0.900096 -1.185154,0.966025 0.09453,0.05861 -0.145554,0.10636 -0.533526,0.106103 -0.387971,-2.58e-4 -0.574518,-0.03128 -0.414547,-0.06895 z m 1.645147,0.0073 c 0.104981,-0.04215 0.230413,-0.03696 0.278737,0.01152 0.04832,0.04848 -0.03757,0.08296 -0.190874,0.07663 -0.169415,-0.007 -0.203874,-0.04157 -0.08786,-0.08815 z m 1.017993,0 c 0.10498,-0.04215 0.230411,-0.03696 0.278736,0.01152 0.04832,0.04848 -0.03757,0.08296 -0.190874,0.07663 -0.169414,-0.007 -0.203874,-0.04157 -0.08786,-0.08815 z m 0.872564,0 c 0.104981,-0.04215 0.230412,-0.03696 0.278736,0.01152 0.04832,0.04848 -0.03757,0.08296 -0.190873,0.07663 -0.169415,-0.007 -0.203875,-0.04157 -0.08786,-0.08815 z m 0.872565,0 c 0.10498,-0.04215 0.230412,-0.03696 0.278736,0.01152 0.04833,0.04848 -0.03757,0.08296 -0.190874,0.07663 -0.169414,-0.007 -0.203874,-0.04157 -0.08786,-0.08815 z m 1.890557,0 c 0.10498,-0.04215 0.230411,-0.03696 0.278735,0.01152 0.04833,0.04848 -0.03757,0.08296 -0.190873,0.07663 -0.169415,-0.007 -0.203875,-0.04157 -0.08786,-0.08815 z m 0.872564,0 c 0.104981,-0.04215 0.230412,-0.03696 0.278736,0.01152 0.04832,0.04848 -0.03757,0.08296 -0.190874,0.07663 -0.169414,-0.007 -0.203874,-0.04157 -0.08786,-0.08815 z m 0.872565,0 c 0.10498,-0.04215 0.230411,-0.03696 0.278736,0.01152 0.04833,0.04848 -0.03757,0.08296 -0.190874,0.07663 -0.169415,-0.007 -0.203875,-0.04157 -0.08786,-0.08815 z m 1.890556,0 c 0.104981,-0.04215 0.230412,-0.03696 0.278736,0.01152 0.04833,0.04848 -0.03757,0.08296 -0.190874,0.07663 -0.169414,-0.007 -0.203874,-0.04157 -0.08786,-0.08815 z m 0.872565,0 c 0.10498,-0.04215 0.230411,-0.03696 0.278736,0.01152 0.04832,0.04848 -0.03757,0.08296 -0.190874,0.07663 -0.169414,-0.007 -0.203875,-0.04157 -0.08786,-0.08815 z m 0.872564,0 c 0.104981,-0.04215 0.230412,-0.03696 0.278736,0.01152 0.04832,0.04848 -0.03757,0.08296 -0.190873,0.07663 -0.169415,-0.007 -0.203875,-0.04157 -0.08786,-0.08815 z m 1.890557,0 c 0.10498,-0.04215 0.230411,-0.03696 0.278736,0.01152 0.04833,0.04848 -0.03757,0.08296 -0.190873,0.07663 -0.169415,-0.007 -0.203876,-0.04157 -0.08786,-0.08815 z m 0.872564,0 c 0.104981,-0.04215 0.230412,-0.03696 0.278736,0.01152 0.04833,0.04848 -0.03757,0.08296 -0.190873,0.07663 -0.169415,-0.007 -0.203875,-0.04157 -0.08786,-0.08815 z m 1.890557,0 c 0.10498,-0.04215 0.230412,-0.03696 0.278736,0.01152 0.04832,0.04848 -0.03757,0.08296 -0.190873,0.07663 -0.169415,-0.007 -0.203875,-0.04157 -0.08786,-0.08815 z m 0.872564,0 c 0.104981,-0.04215 0.230412,-0.03696 0.278736,0.01152 0.04833,0.04848 -0.03757,0.08296 -0.190873,0.07663 -0.169415,-0.007 -0.203875,-0.04157 -0.08786,-0.08815 z m 0.872565,0 c 0.10498,-0.04215 0.230412,-0.03696 0.278736,0.01152 0.04832,0.04848 -0.03757,0.08296 -0.190873,0.07663 -0.169415,-0.007 -0.203875,-0.04157 -0.08786,-0.08815 z m 1.890556,0 c 0.104981,-0.04215 0.230413,-0.03696 0.278736,0.01152 0.04832,0.04848 -0.03757,0.08296 -0.190873,0.07663 -0.169415,-0.007 -0.203874,-0.04157 -0.08786,-0.08815 z m 0.872565,0 c 0.10498,-0.04215 0.230412,-0.03696 0.278736,0.01152 0.04833,0.04848 -0.03757,0.08296 -0.190873,0.07663 -0.169415,-0.007 -0.203875,-0.04157 -0.08786,-0.08815 z m 0.872565,0 c 0.10498,-0.04215 0.230412,-0.03696 0.278736,0.01152 0.04832,0.04848 -0.03757,0.08296 -0.190874,0.07663 -0.169415,-0.007 -0.203874,-0.04157 -0.08786,-0.08815 z m 1.890557,0 c 0.10498,-0.04215 0.230411,-0.03696 0.278736,0.01152 0.04832,0.04848 -0.03757,0.08296 -0.190874,0.07663 -0.169415,-0.007 -0.203875,-0.04157 -0.08786,-0.08815 z m 0.872564,0 c 0.104981,-0.04215 0.230412,-0.03696 0.278736,0.01152 0.04833,0.04848 -0.03757,0.08296 -0.190874,0.07663 -0.169414,-0.007 -0.203874,-0.04157 -0.08786,-0.08815 z m 1.402848,-1.077237 c -0.05272,-0.08558 -0.06467,-0.186898 -0.02655,-0.225142 0.03812,-0.03824 0.108063,0.03178 0.155426,0.155607 0.09834,0.25709 0.01452,0.302312 -0.128877,0.06954 z M 35.358189,39.587382 c 0,-0.03376 1.047077,-0.730369 2.326839,-1.548016 1.686374,-1.077436 2.326838,-1.563932 2.326838,-1.767466 0,-0.154458 -0.367389,-0.971049 -0.816419,-1.814646 -0.695115,-1.305915 -0.878782,-1.546325 -1.236133,-1.618028 -0.586482,-0.117677 -0.52286,-0.296407 0.145859,-0.409754 0.634608,-0.107564 2.752035,-1.293741 2.872733,-1.609298 0.043,-0.112425 -0.359799,-0.933699 -0.895114,-1.825054 -0.535314,-0.891356 -0.940578,-1.653474 -0.900585,-1.693596 0.03999,-0.04012 0.501126,0.640402 1.024741,1.512277 0.523615,0.871874 1.102942,1.664374 1.287394,1.761111 0.233929,0.122686 1.610998,0.187333 4.552763,0.213735 l 4.217395,0.03785 -4.245169,0.03415 c -2.635563,0.0212 -4.279249,0.08947 -4.335049,0.180047 -0.04943,0.08024 -0.221821,0.1459 -0.383083,0.1459 -0.328032,0 -2.280156,1.095896 -2.560675,1.437528 -0.149095,0.181577 -0.03865,0.489269 0.632528,1.7621 0.447242,0.84816 0.918982,1.625389 1.048312,1.727176 0.182633,0.143739 1.745988,0.183207 7.000536,0.176733 4.556085,-0.0056 6.781834,0.04115 6.815742,0.143206 0.03434,0.103336 -2.09337,0.151542 -6.688747,0.151542 -3.706504,0 -6.945023,0.05925 -7.19671,0.131667 -0.251686,0.07242 -1.435279,0.761793 -2.630204,1.531946 -2.025822,1.305682 -2.363792,1.497115 -2.363792,1.338894 z m -0.134603,-0.457319 c -0.006,-0.08468 0.14791,-0.609914 0.341919,-1.167197 0.194009,-0.557283 0.357615,-0.943962 0.363569,-0.859286 0.006,0.08467 -0.14791,0.609913 -0.341919,1.167196 -0.194009,0.557283 -0.357615,0.943962 -0.363569,0.859287 z m -4.487911,-0.971782 c -0.582749,-0.244432 -1.034835,-0.469209 -1.004636,-0.499506 0.0556,-0.05578 2.132483,0.769739 2.261054,0.898727 0.150489,0.150978 -0.242062,0.02625 -1.256418,-0.399221 z m 25.743231,-0.11441 c 0,-0.280856 0.02993,-0.395752 0.06651,-0.255324 0.03658,0.140429 0.03658,0.37022 0,0.510649 -0.03658,0.140428 -0.06651,0.02553 -0.06651,-0.255325 z m -38.622745,0.192265 c -0.132072,-0.1325 -0.118333,-0.338164 0.02259,-0.338164 0.179166,0 5.018215,-2.61954 5.239939,-2.836555 0.162244,-0.158799 0.142267,-0.377331 -0.120315,-1.316158 -0.173174,-0.619159 -0.287048,-1.153647 -0.253054,-1.187752 0.034,-0.03411 0.178368,0.382103 0.320828,0.924907 0.14246,0.542805 0.338892,1.07316 0.436514,1.178567 0.144681,0.156219 0.537493,-0.0056 2.124733,-0.875397 1.187266,-0.650599 1.966216,-1.166733 1.995869,-1.322466 0.02675,-0.140481 -0.289629,-1.172165 -0.703061,-2.292633 -0.413431,-1.120468 -0.728564,-2.106829 -0.700294,-2.191914 0.02827,-0.08509 0.402934,0.81529 0.832588,2.000834 0.429654,1.185543 0.883372,2.237601 1.008263,2.337907 0.170238,0.136727 1.312138,0.182375 4.562102,0.182375 2.59711,0 4.335027,0.05478 4.335027,0.136635 0,0.08108 -1.877231,0.155231 -4.61732,0.182375 l -4.617321,0.04574 -2.009494,1.085381 -2.009494,1.085381 0.482506,0.273142 c 0.265378,0.150228 0.351621,0.227 0.191651,0.170606 -0.850132,-0.2997 -1.037201,-0.241388 -3.579169,1.11567 -1.390831,0.742511 -2.600696,1.436982 -2.68859,1.543269 -0.08789,0.106286 -0.202418,0.150498 -0.254498,0.09825 z m 10.407247,-1.099153 c -0.582748,-0.244431 -1.034834,-0.469209 -1.004636,-0.499505 0.0556,-0.05578 2.132483,0.769739 2.261055,0.898727 0.150489,0.150978 -0.242063,0.02625 -1.256419,-0.399222 z m 27.897828,-0.996754 c -0.09937,-0.729504 -0.151066,-1.356073 -0.114882,-1.392374 0.03618,-0.0363 0.147091,0.530865 0.246459,1.26037 0.09937,0.729504 0.151066,1.356073 0.114882,1.392374 -0.03618,0.0363 -0.14709,-0.530865 -0.246459,-1.26037 z m -20.210513,0.65544 c -0.006,-0.08467 0.14791,-0.609913 0.341919,-1.167196 0.194009,-0.557283 0.357615,-0.943962 0.363569,-0.859287 0.006,0.08468 -0.14791,0.609914 -0.341919,1.167197 -0.194009,0.557283 -0.357615,0.943962 -0.363569,0.859286 z M 25.791142,36.115686 c -0.582748,-0.244432 -1.034834,-0.469209 -1.004636,-0.499505 0.0556,-0.05578 2.132483,0.769739 2.261054,0.898727 0.15049,0.150978 -0.242062,0.02625 -1.256418,-0.399222 z m -2.20195,-1.510939 c -0.01497,-0.220336 0.446426,-1.549259 0.514266,-1.481198 0.03074,0.03084 -0.07,0.411916 -0.223871,0.84683 -0.153873,0.434913 -0.28455,0.720379 -0.290395,0.634368 z m 13.09224,-0.114706 c -0.02306,-0.200559 1.498609,-4.951074 1.541945,-4.813803 0.02159,0.06837 -0.313285,1.207611 -0.744153,2.53165 -0.430868,1.324039 -0.789874,2.351007 -0.797792,2.282153 z m 19.215764,-0.385459 c 0,-0.280856 0.02993,-0.395752 0.06651,-0.255324 0.03658,0.140429 0.03658,0.370221 0,0.510649 -0.03658,0.140428 -0.06651,0.02553 -0.06651,-0.255325 z m -0.246287,-1.391657 c -0.05626,-0.451772 -0.07209,-0.851705 -0.03518,-0.888741 0.03691,-0.03703 0.113154,0.302293 0.169416,0.754064 0.05626,0.451772 0.07209,0.851706 0.03517,0.888742 -0.03691,0.03703 -0.113153,-0.302293 -0.169415,-0.754065 z m -31.462462,0.07856 c 0.04098,-0.120367 0.319963,-0.961602 0.619958,-1.869411 0.299994,-0.907809 0.57078,-1.625143 0.601747,-1.594076 0.07068,0.07091 -1.063544,3.475081 -1.197647,3.594535 -0.05421,0.04829 -0.06504,-0.01068 -0.02406,-0.131048 z m -1.690198,-0.812868 c -0.05349,-0.213817 -0.06921,-0.416897 -0.03493,-0.451288 0.03428,-0.03439 0.106091,0.112414 0.159582,0.326231 0.05349,0.213818 0.06921,0.416898 0.03493,0.451288 -0.03428,0.03439 -0.106091,-0.112413 -0.159582,-0.326231 z m 32.962665,-0.792026 c 0,-0.280857 0.02993,-0.395753 0.06651,-0.255324 0.03658,0.140428 0.03658,0.37022 0,0.510648 -0.03658,0.140429 -0.06651,0.02553 -0.06651,-0.255324 z M 22.207394,30.95732 c -0.05349,-0.213818 -0.06921,-0.416897 -0.03493,-0.451288 0.03428,-0.03439 0.106091,0.112414 0.159582,0.326231 0.05349,0.213818 0.06921,0.416897 0.03493,0.451288 -0.03428,0.03439 -0.106091,-0.112413 -0.159582,-0.326231 z m 33.108092,-0.792026 c 0,-0.280857 0.02993,-0.395753 0.06651,-0.255325 0.03658,0.140429 0.03658,0.370221 0,0.510649 -0.03658,0.140428 -0.06651,0.02553 -0.06651,-0.255324 z M 21.916539,29.936023 c -0.05349,-0.213818 -0.06921,-0.416897 -0.03493,-0.451288 0.03428,-0.03439 0.106092,0.112413 0.159583,0.326231 0.05349,0.213818 0.06921,0.416897 0.03493,0.451288 -0.03428,0.03439 -0.106092,-0.112413 -0.159583,-0.326231 z m 33.15266,-1.162387 c -0.05626,-0.451772 -0.07209,-0.851705 -0.03518,-0.888741 0.03691,-0.03703 0.113153,0.302293 0.169415,0.754064 0.05626,0.451772 0.07209,0.851706 0.03518,0.888742 -0.03691,0.03703 -0.113153,-0.302293 -0.169415,-0.754065 z M 38.277562,29.35479 c -0.006,-0.08468 0.14791,-0.609913 0.341919,-1.167196 0.194009,-0.557283 0.357615,-0.943962 0.363569,-0.859287 0.006,0.08468 -0.14791,0.609914 -0.341919,1.167197 -0.194009,0.557283 -0.357615,0.943962 -0.363569,0.859286 z m -16.95267,-1.560861 c -0.226921,-0.822236 -0.505295,-1.550551 -0.618608,-1.618479 -0.171522,-0.102822 -0.158637,-0.176122 0.07694,-0.437699 0.426146,-0.473181 4.543468,-8.726783 4.541866,-9.104644 -9.35e-4,-0.216217 0.0857,-0.328274 0.25374,-0.328274 0.24506,0 12.742723,-12.4048424 12.705773,-12.6114044 -0.0098,-0.05493 1.878316,-0.112238 4.195874,-0.127344 3.129148,-0.0204 4.22404,0.0167 4.253754,0.144105 0.05419,0.232366 3.165446,2.673471 3.407412,2.673471 0.109179,0 0.18255,0.141909 0.169727,0.328274 -0.01242,0.180551 0.01846,0.558066 0.06863,0.838923 l 0.09122,0.510648 -0.176073,-0.510648 c -0.09684,-0.280857 -0.229016,-0.592718 -0.293725,-0.693024 -0.166808,-0.258569 -8.213431,-0.254199 -8.544401,0.0046 -0.124995,0.09775 -0.806039,1.162557 -1.513432,2.366228 -1.260556,2.1449114 -1.286207,2.2073804 -1.28806,3.1368414 -0.0018,0.922883 -0.0054,0.931698 -0.131185,0.328274 -0.07111,-0.341037 -0.179604,-0.62007 -0.241095,-0.62007 -0.191686,0 -9.975635,9.6058 -10.025309,9.842765 -0.02586,0.123368 -0.102243,0.224306 -0.169739,0.224306 -0.0675,0 -0.396701,0.824815 -0.731566,1.83292 -0.334866,1.008106 -0.634177,1.807509 -0.665134,1.776451 -0.03096,-0.03106 0.199318,-0.819766 0.511723,-1.752683 0.312404,-0.932918 0.557213,-1.880044 0.544018,-2.104725 -0.02414,-0.411089 -1.989441,-5.003516 -2.141454,-5.004058 -0.04481,-1.59e-4 -1.07553,1.959848 -2.290482,4.355572 -1.486462,2.931106 -2.209003,4.508889 -2.209003,4.823707 0,0.257315 0.169673,1.059535 0.377051,1.78271 0.207379,0.723176 0.349393,1.342614 0.315589,1.376529 -0.0338,0.03391 -0.247128,-0.611075 -0.474049,-1.43331 z M 33.165084,16.764902 c 2.725925,-2.675895 4.956226,-4.9574 4.956226,-5.07001 0,-0.11261 0.0818,-0.205634 0.181784,-0.206721 0.198959,-0.0022 2.872192,-4.4890964 2.872192,-4.8208814 0,-0.112699 -0.57262,-0.797099 -1.27249,-1.520889 l -1.27249,-1.315983 1.347939,1.313096 1.347939,1.313097 3.087597,0.04375 c 1.698179,0.02406 3.611137,0.02406 4.251018,0 l 1.163419,-0.04375 -1.574687,-1.240147 c -0.866078,-0.68208 -1.629572,-1.240146 -1.696653,-1.240146 -0.06708,0 -0.171048,-0.04924 -0.231037,-0.109425 -0.171432,-0.171989 -7.590185,-0.134538 -7.697001,0.03885 -0.05024,0.08155 -0.139943,0.118147 -0.199341,0.08132 -0.131991,-0.08184 -12.46579,12.3021584 -12.558452,12.6095664 -0.07171,0.237896 0.01674,0.464387 1.269947,3.251993 0.461375,1.02627 0.890388,1.846955 0.953364,1.823744 0.06297,-0.02321 2.344802,-2.23157 5.070726,-4.907466 z m 0.17399,-3.560435 c -0.0093,-0.140429 -0.08489,-0.255325 -0.16803,-0.255325 -0.08715,0 -0.07176,-0.08584 0.03636,-0.202703 0.103134,-0.111487 0.220239,-0.154159 0.260231,-0.09483 0.03999,0.05933 0.170878,0.145366 0.290855,0.191185 0.179112,0.0684 0.174515,0.08537 -0.0257,0.09483 -0.134109,0.0063 -0.273763,0.126414 -0.310342,0.266843 -0.06334,0.243166 -0.06731,0.243166 -0.08338,0 z m 1.029474,-0.182375 c 0.003,-0.240734 0.03556,-0.321553 0.07243,-0.179598 0.03687,0.141956 0.03445,0.33892 -0.0054,0.437699 -0.03983,0.09878 -0.07,-0.01737 -0.06704,-0.258101 z M 32.44964,12.876193 c 0,-0.200612 0.05637,-0.364749 0.125261,-0.364749 0.06889,0 0.09399,0.164137 0.05576,0.364749 -0.03823,0.200611 -0.09459,0.364748 -0.12526,0.364748 -0.03067,0 -0.05576,-0.164137 -0.05576,-0.364748 z M 43.670515,5.3623636 c 0,-0.200612 0.03301,-0.282681 0.07335,-0.182375 0.04034,0.100306 0.04034,0.264443 0,0.364749 -0.04034,0.100306 -0.07335,0.01824 -0.07335,-0.182374 z M 25.497311,28.998097 c 0.04099,-0.120367 0.28724,-0.863131 0.54722,-1.650585 0.259979,-0.787456 0.498146,-1.406198 0.529259,-1.374984 0.07066,0.07089 -0.918805,3.03771 -1.052922,3.157101 -0.05395,0.04802 -0.06455,-0.01117 -0.02356,-0.131532 z m 29.381893,-1.750795 c 0,-0.280857 0.02993,-0.395753 0.06651,-0.255324 0.03658,0.140428 0.03658,0.37022 0,0.510648 -0.03658,0.140429 -0.06651,0.02553 -0.06651,-0.255324 z M 25.641079,26.695 c -0.100504,-0.33654 -0.286797,-0.623305 -0.429258,-0.660764 -0.192531,-0.05063 -0.17743,-0.07016 0.06424,-0.08311 0.23869,-0.01279 0.357107,0.108236 0.484336,0.494996 0.09262,0.281556 0.143617,0.586515 0.113324,0.677689 -0.03029,0.09117 -0.134981,-0.101794 -0.232642,-0.428815 z m 13.36362,0.325397 c -0.006,-0.08468 0.14791,-0.609914 0.341919,-1.167196 0.194009,-0.557284 0.357615,-0.943962 0.363569,-0.859287 0.006,0.08468 -0.14791,0.609914 -0.341919,1.167197 -0.194009,0.557282 -0.357615,0.943962 -0.363569,0.859286 z m -0.49933,-0.652982 c -0.140292,-0.238265 -0.196992,-0.433209 -0.126,-0.433209 0.153953,0 0.547885,0.699068 0.449533,0.797739 -0.03765,0.03777 -0.183242,-0.126264 -0.323533,-0.36453 z M 54.561535,25.34366 c -0.09937,-0.729505 -0.151067,-1.356073 -0.114883,-1.392374 0.03618,-0.0363 0.147091,0.530865 0.24646,1.260369 0.09937,0.729505 0.151065,1.356073 0.114882,1.392374 -0.03618,0.0363 -0.14709,-0.530865 -0.246459,-1.260369 z m -39.181439,0.765954 c -0.03944,-0.06402 -0.02186,-0.197302 0.03906,-0.296194 0.08666,-0.140683 0.196417,-0.135222 0.504441,0.0251 0.393348,0.204734 0.393399,0.20498 0.06142,0.294202 -0.439448,0.118107 -0.519827,0.115036 -0.604929,-0.02311 z m 30.769196,-0.0081 c -0.151286,-0.09628 -0.145344,-0.156142 0.02999,-0.302125 0.249522,-0.207758 0.522249,-0.09474 0.522249,0.216424 0,0.231764 -0.259456,0.272028 -0.552236,0.0857 z M 16.861637,25.980439 c 0.104981,-0.04215 0.230412,-0.03696 0.278736,0.01152 0.04832,0.04848 -0.03757,0.08297 -0.190873,0.07663 -0.169415,-0.007 -0.203875,-0.04157 -0.08786,-0.08815 z m 1.890557,0 c 0.10498,-0.04215 0.230412,-0.03696 0.278736,0.01152 0.04832,0.04848 -0.03757,0.08297 -0.190874,0.07663 -0.169414,-0.007 -0.203874,-0.04157 -0.08786,-0.08815 z m 0.872565,0 c 0.10498,-0.04215 0.230411,-0.03696 0.278736,0.01152 0.04832,0.04848 -0.03757,0.08297 -0.190874,0.07663 -0.169415,-0.007 -0.203875,-0.04157 -0.08786,-0.08815 z m 1.890556,0 c 0.104981,-0.04215 0.230412,-0.03696 0.278736,0.01152 0.04833,0.04848 -0.03757,0.08297 -0.190873,0.07663 -0.169415,-0.007 -0.203875,-0.04157 -0.08786,-0.08815 z m 0.872565,0 c 0.10498,-0.04215 0.230412,-0.03696 0.278735,0.01152 0.04833,0.04848 -0.03757,0.08297 -0.190873,0.07663 -0.169415,-0.007 -0.203874,-0.04157 -0.08786,-0.08815 z m 0.872564,0 c 0.104981,-0.04215 0.230412,-0.03696 0.278736,0.01152 0.04832,0.04848 -0.03757,0.08297 -0.190873,0.07663 -0.169415,-0.007 -0.203875,-0.04157 -0.08786,-0.08815 z m 2.763122,0 c 0.10498,-0.04215 0.230411,-0.03696 0.278736,0.01152 0.04833,0.04848 -0.03757,0.08297 -0.190874,0.07663 -0.169415,-0.007 -0.203874,-0.04157 -0.08786,-0.08815 z m 2.763121,0 c 0.10498,-0.04215 0.230412,-0.03696 0.278736,0.01152 0.04833,0.04848 -0.03757,0.08297 -0.190874,0.07663 -0.169414,-0.007 -0.203874,-0.04157 -0.08786,-0.08815 z m 0.872565,0 c 0.10498,-0.04215 0.230411,-0.03696 0.278736,0.01152 0.04832,0.04848 -0.03757,0.08297 -0.190874,0.07663 -0.169415,-0.007 -0.203875,-0.04157 -0.08786,-0.08815 z m 1.890556,0 c 0.10498,-0.04215 0.230412,-0.03696 0.278736,0.01152 0.04832,0.04848 -0.03757,0.08297 -0.190874,0.07663 -0.169414,-0.007 -0.203874,-0.04157 -0.08786,-0.08815 z m 0.872565,0 c 0.10498,-0.04215 0.230411,-0.03696 0.278736,0.01152 0.04832,0.04848 -0.03757,0.08297 -0.190874,0.07663 -0.169415,-0.007 -0.203875,-0.04157 -0.08786,-0.08815 z m 0.872564,0 c 0.104981,-0.04215 0.230412,-0.03696 0.278736,0.01152 0.04833,0.04848 -0.03757,0.08297 -0.190874,0.07663 -0.169414,-0.007 -0.203874,-0.04157 -0.08786,-0.08815 z m 1.890557,0 c 0.10498,-0.04215 0.230411,-0.03696 0.278736,0.01152 0.04833,0.04848 -0.03757,0.08297 -0.190874,0.07663 -0.169414,-0.007 -0.203875,-0.04157 -0.08786,-0.08815 z m 0.872564,0 c 0.104981,-0.04215 0.230412,-0.03696 0.278736,0.01152 0.04832,0.04848 -0.03757,0.08297 -0.190873,0.07663 -0.169415,-0.007 -0.203875,-0.04157 -0.08786,-0.08815 z m 0.872565,0 c 0.10498,-0.04215 0.230411,-0.03696 0.278736,0.01152 0.04833,0.04848 -0.03757,0.08297 -0.190874,0.07663 -0.169414,-0.007 -0.203874,-0.04157 -0.08786,-0.08815 z m 1.890556,0 c 0.104981,-0.04215 0.230412,-0.03696 0.278736,0.01152 0.04833,0.04848 -0.03757,0.08297 -0.190873,0.07663 -0.169415,-0.007 -0.203875,-0.04157 -0.08786,-0.08815 z m 0.872565,0 c 0.10498,-0.04215 0.230411,-0.03696 0.278736,0.01152 0.04832,0.04848 -0.03757,0.08297 -0.190873,0.07663 -0.169415,-0.007 -0.203875,-0.04157 -0.08786,-0.08815 z m 0.872565,0 c 0.10498,-0.04215 0.230411,-0.03696 0.278735,0.01152 0.04832,0.04848 -0.03757,0.08297 -0.190873,0.07663 -0.169415,-0.007 -0.203875,-0.04157 -0.08786,-0.08815 z m 1.017991,0 c 0.104981,-0.04215 0.230412,-0.03696 0.278736,0.01152 0.04832,0.04848 -0.03757,0.08297 -0.190873,0.07663 -0.169415,-0.007 -0.203874,-0.04157 -0.08786,-0.08815 z m 0.872565,0 c 0.10498,-0.04215 0.230411,-0.03696 0.278736,0.01152 0.04832,0.04848 -0.03757,0.08297 -0.190873,0.07663 -0.169415,-0.007 -0.203875,-0.04157 -0.08786,-0.08815 z m 0.872565,0 c 0.10498,-0.04215 0.230411,-0.03696 0.278735,0.01152 0.04833,0.04848 -0.03757,0.08297 -0.190873,0.07663 -0.169415,-0.007 -0.203875,-0.04157 -0.08786,-0.08815 z m 1.890556,0 c 0.104981,-0.04215 0.230412,-0.03696 0.278736,0.01152 0.04832,0.04848 -0.03757,0.08297 -0.190873,0.07663 -0.169415,-0.007 -0.203875,-0.04157 -0.08786,-0.08815 z m 2.315018,-1.225125 c 0.05143,-0.197287 0.117345,-0.263421 0.153651,-0.15415 0.03497,0.105258 -0.0056,0.260745 -0.09007,0.345528 -0.107917,0.108267 -0.126844,0.0513 -0.06359,-0.191378 z m -7.802638,-0.07489 c -0.0062,-0.08774 0.114116,-0.525404 0.267468,-0.972577 0.153353,-0.447174 0.245541,-0.846433 0.204863,-0.887243 -0.04068,-0.04081 -0.02942,-0.214989 0.02502,-0.387064 0.08747,-0.276493 0.1186,-0.286042 0.267776,-0.08214 0.15038,0.205544 0.898763,0.226543 6.858461,0.192444 l 6.689662,-0.03827 -0.04227,-0.437699 -0.04227,-0.437699 0.260408,0.510649 c 0.171692,0.336682 0.238039,0.709469 0.194748,1.094247 -0.0496,0.440855 -0.07969,0.494384 -0.123006,0.218849 -0.11821,-0.751895 0.0973,-0.729498 -7.019216,-0.729498 -5.106329,0 -6.690763,0.04187 -6.780925,0.179175 -0.06471,0.09855 -0.259789,0.574543 -0.43351,1.057772 -0.173722,0.483228 -0.320967,0.806807 -0.327212,0.719064 z m 5.677185,-0.09579 c -0.0093,-0.140429 -0.08489,-0.255325 -0.168031,-0.255325 -0.08715,0 -0.07175,-0.08584 0.03636,-0.202703 0.103135,-0.111487 0.220239,-0.154159 0.260232,-0.09483 0.03999,0.05933 0.170877,0.145365 0.290855,0.191185 0.179112,0.0684 0.174514,0.08537 -0.0257,0.09483 -0.13411,0.0063 -0.273763,0.126414 -0.310342,0.266843 -0.06334,0.243165 -0.06731,0.243165 -0.08338,0 z m 0.894819,0.08127 c 0.141496,-0.03699 0.337824,-0.03456 0.436283,0.0054 0.09846,0.03996 -0.01731,0.07023 -0.257266,0.06726 -0.239955,-0.003 -0.320513,-0.03567 -0.179017,-0.07266 z m 0.845889,-0.04479 c -0.0044,-0.120368 0.05544,-0.317332 0.132979,-0.437699 0.171797,-0.2667 0.171797,-0.03634 0,0.364749 -0.08241,0.192404 -0.127708,0.217252 -0.132979,0.07295 z m -3.066425,-0.137289 c 0,-0.07551 0.06469,-0.177401 0.143762,-0.226427 0.08244,-0.05111 0.106818,0.0074 0.05715,0.137289 -0.09668,0.252759 -0.200917,0.299005 -0.200917,0.08914 z m 2.54498,-0.519259 c 0,-0.185286 0.04908,-0.306452 0.109071,-0.269256 0.05999,0.03719 0.10907,0.158361 0.10907,0.269256 0,0.110896 -0.04908,0.232061 -0.10907,0.269257 -0.05999,0.03719 -0.109071,-0.08397 -0.109071,-0.269257 z m -23.038766,-1.03346 c 0.007,-0.169965 0.04144,-0.204537 0.08786,-0.08815 0.04201,0.105321 0.03684,0.23116 -0.01148,0.279641 -0.04832,0.04848 -0.0827,-0.03769 -0.07638,-0.191493 z m 1.842719,0.134381 c 0.09998,-0.04048 0.263587,-0.04048 0.363568,0 0.09998,0.04048 0.01818,0.07359 -0.181784,0.07359 -0.199963,0 -0.281765,-0.03311 -0.181784,-0.07359 z m 1.0827,-0.268122 c 0.003,-0.240735 0.03556,-0.321554 0.07243,-0.179598 0.03687,0.141955 0.03445,0.33892 -0.0054,0.437698 -0.03984,0.09878 -0.07,-0.01736 -0.06704,-0.2581 z m 9.070213,-0.115718 c 0.05461,-0.143889 0.13593,-0.224863 0.180705,-0.179942 0.04477,0.04492 9.2e-5,0.162648 -0.0993,0.261616 -0.143626,0.143021 -0.16033,0.126262 -0.08141,-0.08167 z m -11.243619,-0.05781 c 0.139974,-0.0367 0.369022,-0.0367 0.508996,0 0.139974,0.0367 0.02545,0.06672 -0.254498,0.06672 -0.279948,0 -0.394472,-0.03003 -0.254498,-0.06672 z m 1.345204,-0.278109 c 0,-0.192949 0.04908,-0.350816 0.10907,-0.350816 0.05999,0 0.109071,0.127435 0.109071,0.283188 0,0.155754 -0.04908,0.313622 -0.109071,0.350817 -0.05999,0.03719 -0.10907,-0.09024 -0.10907,-0.283189 z m 6.633818,0.05041 c -0.0093,-0.140429 -0.08489,-0.255325 -0.168031,-0.255325 -0.08715,0 -0.07176,-0.08584 0.03636,-0.202703 0.103135,-0.111487 0.220239,-0.154159 0.260231,-0.09483 0.03999,0.05933 0.170878,0.145366 0.290855,0.191185 0.179112,0.0684 0.174515,0.08537 -0.0257,0.09483 -0.134109,0.0063 -0.273762,0.126414 -0.310341,0.266843 -0.06334,0.243166 -0.06731,0.243166 -0.08338,0 z m 2.176022,0.0107 c -0.0063,-0.134544 -0.126005,-0.274651 -0.265979,-0.311349 -0.226198,-0.0593 -0.227384,-0.0686 -0.01066,-0.08365 0.134109,-0.0093 0.273763,-0.13182 0.310342,-0.272248 0.06334,-0.243166 0.06731,-0.243166 0.08338,0 0.0093,0.140428 0.09867,0.256329 0.198654,0.257558 0.125759,0.0015 0.132479,0.03527 0.0218,0.109425 -0.08799,0.05895 -0.197345,0.205672 -0.243017,0.32604 -0.06818,0.179692 -0.08509,0.17508 -0.09452,-0.02578 z m -2.908548,-0.35113 c 0.007,-0.169965 0.04144,-0.204537 0.08786,-0.08815 0.04201,0.105322 0.03684,0.23116 -0.01148,0.279641 -0.04833,0.04848 -0.0827,-0.03769 -0.07638,-0.191493 z m 4.217395,0 c 0.007,-0.169965 0.04144,-0.204537 0.08786,-0.08815 0.04201,0.105322 0.03684,0.23116 -0.01148,0.279641 -0.04833,0.04848 -0.0827,-0.03769 -0.07638,-0.191493 z m -4.653678,-0.291799 c 0.007,-0.169965 0.04144,-0.204536 0.08786,-0.08815 0.04201,0.105321 0.03684,0.231159 -0.01148,0.27964 -0.04832,0.04848 -0.0827,-0.03769 -0.07638,-0.191493 z m 8.868147,-0.79887 c -0.101057,-0.567321 -0.154869,-1.060458 -0.119582,-1.09586 0.03529,-0.0354 0.146842,0.399804 0.247901,0.967125 0.101057,0.56732 0.154869,1.060457 0.119582,1.095859 -0.03529,0.0354 -0.146843,-0.399804 -0.247901,-0.967124 z m 13.818532,0.361172 c 0.007,-0.169965 0.04144,-0.204536 0.08786,-0.08815 0.04201,0.105321 0.03684,0.231159 -0.01148,0.279641 -0.04832,0.04848 -0.0827,-0.03769 -0.07638,-0.191494 z m -0.579557,-2.190013 c -0.253634,-1.016085 -0.434567,-1.874099 -0.402073,-1.906698 0.03249,-0.0326 0.266599,0.77207 0.520233,1.788154 0.253635,1.016085 0.434568,1.874099 0.402074,1.906698 -0.03249,0.0326 -0.266599,-0.77207 -0.520234,-1.788154 z M 39.654908,18.997344 c -0.05563,-0.372163 -0.0714,-0.706503 -0.03504,-0.742978 0.03636,-0.03648 0.111618,0.238178 0.167247,0.610341 0.05563,0.372163 0.0714,0.706503 0.03504,0.742978 -0.03636,0.03648 -0.111618,-0.238179 -0.167247,-0.610341 z m -0.290854,-1.604896 c -0.05563,-0.372163 -0.0714,-0.706503 -0.03504,-0.742978 0.03636,-0.03647 0.111618,0.238179 0.167246,0.610342 0.05563,0.372163 0.0714,0.706503 0.03504,0.742978 -0.03636,0.03647 -0.111617,-0.238179 -0.167246,-0.610342 z m 13.31148,-0.589125 c 0.007,-0.169965 0.04144,-0.204536 0.08786,-0.08815 0.04201,0.105321 0.03684,0.23116 -0.01148,0.279641 -0.04832,0.04848 -0.0827,-0.03769 -0.07638,-0.191493 z M 39.073199,15.787552 c -0.05563,-0.372163 -0.0714,-0.706502 -0.03504,-0.742977 0.03636,-0.03647 0.111617,0.238179 0.167246,0.610341 0.05563,0.372163 0.0714,0.706503 0.03504,0.742978 -0.03636,0.03648 -0.111618,-0.238178 -0.167246,-0.610342 z M 52.095977,14.61331 c -0.253635,-1.016085 -0.434567,-1.874099 -0.402074,-1.906698 0.0325,-0.0326 0.266599,0.77207 0.520234,1.788154 0.253634,1.016084 0.434567,1.874098 0.402073,1.906698 -0.0325,0.0326 -0.266599,-0.77207 -0.520233,-1.788154 z m -31.904461,0.731208 c -0.29695,-0.586197 -0.362161,-0.640093 -0.52959,-0.437698 -0.354274,0.428259 -0.446182,0.235377 -0.446182,-0.936381 0,-0.641958 0.05132,-1.167196 0.114038,-1.167196 0.06272,0 0.469501,0.361101 0.903954,0.802447 0.765465,0.77761 0.77763,0.802448 0.393006,0.802448 h -0.396909 l 0.235902,0.547124 c 0.349243,0.809991 0.401722,1.057772 0.224032,1.057772 -0.08778,0 -0.311994,-0.300832 -0.498251,-0.668516 z m 26.963933,-0.06431 c 0.220165,-0.653299 0.344129,-0.780116 0.21067,-0.215519 -0.0569,0.240735 -0.166053,0.501855 -0.242551,0.580268 -0.0765,0.07841 -0.06215,-0.08572 0.03188,-0.364749 z m -2.478423,-0.227677 c 0.007,-0.169965 0.04144,-0.204537 0.08786,-0.08815 0.04201,0.105322 0.03684,0.23116 -0.01148,0.279641 -0.04833,0.04848 -0.0827,-0.03769 -0.07638,-0.191493 z m 1.182561,-0.004 c -0.103135,-0.111487 -0.124294,-0.202703 -0.04702,-0.202703 0.07727,0 0.170427,-0.114896 0.207006,-0.255325 0.06334,-0.243166 0.06731,-0.243166 0.08338,0 0.0093,0.140429 0.131393,0.260508 0.271368,0.266843 0.202715,0.0092 0.210113,0.02847 0.03636,0.09483 -0.119978,0.04582 -0.250862,0.131852 -0.290855,0.191185 -0.03999,0.05933 -0.157097,0.01666 -0.260232,-0.09483 z m 0.99885,-0.287811 c 0.007,-0.169965 0.04144,-0.204537 0.08786,-0.08815 0.04201,0.105321 0.03684,0.23116 -0.01148,0.279641 -0.04832,0.04848 -0.0827,-0.03769 -0.07638,-0.191494 z m -8.076093,-0.578073 c -0.05563,-0.372163 -0.0714,-0.706503 -0.03504,-0.742978 0.03636,-0.03647 0.111617,0.238179 0.167246,0.610342 0.05563,0.372163 0.0714,0.706503 0.03504,0.742978 -0.03636,0.03647 -0.111618,-0.238179 -0.167246,-0.610342 z m 6.476391,0.432172 c 0.007,-0.169964 0.04144,-0.204536 0.08786,-0.08815 0.04201,0.105321 0.03684,0.231159 -0.01148,0.279641 -0.04833,0.04848 -0.0827,-0.03769 -0.07638,-0.191494 z m 5.81925,-3.940808 C 50.824351,9.6579226 50.643417,8.7999086 50.675911,8.7673096 c 0.0325,-0.0326 0.266599,0.77207 0.520233,1.7881544 0.253635,1.016085 0.434568,1.874099 0.402074,1.906698 -0.0325,0.0326 -0.266599,-0.77207 -0.520233,-1.788154 z M 50.494123,8.3411336 c 0.007,-0.169965 0.04144,-0.204537 0.08786,-0.08815 0.04201,0.105322 0.03684,0.23116 -0.01148,0.279641 -0.04832,0.04848 -0.0827,-0.03769 -0.07638,-0.191493 z"
       id="path16" /></g><g
     inkscape:groupmode="layer"
     id="layer3"
     inkscape:label="Layer 3"><path
       style="fill:none;stroke:#000000;stroke-width:0.14111111;stroke-dasharray:0.56444444, 0.14111111;stroke-dashoffset:0;stroke-opacity:1"
       d="M 46.39924,26.120082 15.619547,25.988826 18.441566,41.936513 H 58.277974 Z"
       id="path26" /><path
       style="display:inline;fill:none;stroke:#000000;stroke-width:0.14111111;stroke-dasharray:none"
       d="m 17.916539,38.064442 c 0.459398,-0.328141 5.644038,-3.084533 5.644038,-3.084533 l -2.756391,-9.12234 4.79087,-9.253597 12.731898,-12.9287847 8.269173,-0.065628 3.347046,2.9532757 4.397099,16.210201 2.493876,17.260255 -21.722982,-0.262511 -11.616218,-4.790871 4.462728,-13.191298 10.434908,-10.172393 1.903222,11.025562 -5.18464,17.06337 5.11901,-3.281418 -1.771965,-3.937701 -10.566164,0.06563 -4.462727,2.493877"
       id="path17" /><path
       style="fill:none;stroke:#000000;stroke-width:0.14111111;stroke-dasharray:none"
       d="m 27.907969,21.941449 -2.429607,-5.29343"
       id="path18" /><path
       style="fill:none;stroke:#000000;stroke-width:0.14111111;stroke-dasharray:none"
       d="m 38.354764,11.787187 3.03961,-5.2903121 8.53875,0.046406"
       id="path19" /><path
       style="fill:none;stroke:#000000;stroke-width:0.14111111;stroke-dasharray:none"
       d="m 38.470781,3.6196875 3.016406,3.0164061"
       id="path20" /><path
       style="fill:none;stroke:#000000;stroke-width:0.14111111;stroke-dasharray:none"
       d="M 40.327032,22.64625 54.388125,22.55344"
       id="path21" /><path
       style="fill:none;stroke:#000000;stroke-width:0.14111111;stroke-dasharray:none"
       d="m 54.248907,36.428907 c -0.185627,0.04641 -13.968283,-0.09281 -13.968283,-0.09281 l -1.902656,-3.758906 2.877188,-1.809846 8.61982,-0.0028"
       id="path22"
       sodipodi:nodetypes="ccccc" /><path
       style="fill:none;stroke:#000000;stroke-width:0.14111111;stroke-dasharray:none"
       d="M 41.216387,30.783546 38.489283,26.103377"
       id="path23"
       sodipodi:nodetypes="cc" /><path
       style="fill:none;stroke:#000000;stroke-width:0.14111111;stroke-dasharray:none"
       d="M 27.948165,32.632294 25.425016,25.992262"
       id="path24"
       sodipodi:nodetypes="cc" /><path
       style="fill:none;stroke:#000000;stroke-width:0.14111111;stroke-dasharray:none"
       d="m 35.956802,39.20411 c -0.37125,0.232032 -4.176564,2.737969 -4.176564,2.737969"
       id="path25" /></g></svg>
